<mxfile host="app.diagrams.net" agent="Mozilla/5.0 (Windows NT 10.0; Win64; x64) AppleWebKit/537.36 (KHTML, like Gecko) Chrome/131.0.0.0 Safari/537.36 Edg/131.0.0.0" version="24.8.6">
  <diagram id="ksPb4p8u68PGOzZ3T1Pc" name="Page-2">
    <mxGraphModel dx="1026" dy="465" grid="1" gridSize="10" guides="1" tooltips="1" connect="1" arrows="1" fold="1" page="1" pageScale="1" pageWidth="827" pageHeight="1169" math="0" shadow="0">
      <root>
        <mxCell id="0" />
        <mxCell id="1" parent="0" />
        <mxCell id="mimwsEYvyM-YJtAeoitM-122" style="edgeStyle=orthogonalEdgeStyle;rounded=0;orthogonalLoop=1;jettySize=auto;html=1;startArrow=none;startFill=0;" parent="1" source="oWXJO-QN1PrUgMntsN1Z-1" edge="1">
          <mxGeometry relative="1" as="geometry">
            <Array as="points">
              <mxPoint x="1600" y="100" />
              <mxPoint x="1600" y="1060" />
            </Array>
            <mxPoint x="1120" y="1060" as="targetPoint" />
          </mxGeometry>
        </mxCell>
        <mxCell id="mimwsEYvyM-YJtAeoitM-123" value="+dct:creator" style="edgeLabel;html=1;align=center;verticalAlign=middle;resizable=0;points=[];" parent="mimwsEYvyM-YJtAeoitM-122" vertex="1" connectable="0">
          <mxGeometry x="0.9173" y="2" relative="1" as="geometry">
            <mxPoint x="-9" as="offset" />
          </mxGeometry>
        </mxCell>
        <mxCell id="oWXJO-QN1PrUgMntsN1Z-1" value="dcat:Resource" style="swimlane;fontStyle=0;childLayout=stackLayout;horizontal=1;startSize=26;fillColor=#dae8fc;horizontalStack=0;resizeParent=1;resizeParentMax=0;resizeLast=0;collapsible=1;marginBottom=0;strokeColor=#6c8ebf;" parent="1" vertex="1">
          <mxGeometry x="10" y="70" width="220" height="90" as="geometry" />
        </mxCell>
        <mxCell id="mimwsEYvyM-YJtAeoitM-113" style="edgeStyle=orthogonalEdgeStyle;rounded=0;orthogonalLoop=1;jettySize=auto;html=1;entryX=0;entryY=0.25;entryDx=0;entryDy=0;" parent="1" source="oWXJO-QN1PrUgMntsN1Z-2" target="U7aUaXZqjMmvU-UISuYW-22" edge="1">
          <mxGeometry relative="1" as="geometry">
            <Array as="points">
              <mxPoint x="360" y="903" />
            </Array>
          </mxGeometry>
        </mxCell>
        <mxCell id="mimwsEYvyM-YJtAeoitM-114" value="+cav:documentedIn" style="edgeLabel;html=1;align=center;verticalAlign=middle;resizable=0;points=[];" parent="mimwsEYvyM-YJtAeoitM-113" vertex="1" connectable="0">
          <mxGeometry x="0.9054" y="3" relative="1" as="geometry">
            <mxPoint x="-28" y="3" as="offset" />
          </mxGeometry>
        </mxCell>
        <mxCell id="U7aUaXZqjMmvU-UISuYW-6" style="edgeStyle=orthogonalEdgeStyle;rounded=0;orthogonalLoop=1;jettySize=auto;html=1;entryX=0;entryY=0.5;entryDx=0;entryDy=0;exitX=0.75;exitY=1;exitDx=0;exitDy=0;" parent="1" source="oWXJO-QN1PrUgMntsN1Z-3" target="oWXJO-QN1PrUgMntsN1Z-4" edge="1">
          <mxGeometry relative="1" as="geometry">
            <mxPoint x="200" y="340" as="sourcePoint" />
            <Array as="points">
              <mxPoint x="160" y="340" />
              <mxPoint x="160" y="515" />
            </Array>
          </mxGeometry>
        </mxCell>
        <mxCell id="U7aUaXZqjMmvU-UISuYW-7" value="+dcat:distribution" style="edgeLabel;html=1;align=center;verticalAlign=middle;resizable=0;points=[];" parent="U7aUaXZqjMmvU-UISuYW-6" vertex="1" connectable="0">
          <mxGeometry x="0.0667" relative="1" as="geometry">
            <mxPoint x="35" y="-15" as="offset" />
          </mxGeometry>
        </mxCell>
        <mxCell id="oWXJO-QN1PrUgMntsN1Z-3" value="dcat:Dataset" style="swimlane;fontStyle=0;childLayout=stackLayout;horizontal=1;startSize=26;fillColor=#dae8fc;horizontalStack=0;resizeParent=1;resizeParentMax=0;resizeLast=0;collapsible=1;marginBottom=0;strokeColor=#6c8ebf;" parent="1" vertex="1">
          <mxGeometry x="50" y="246" width="140" height="94" as="geometry" />
        </mxCell>
        <mxCell id="oWXJO-QN1PrUgMntsN1Z-4" value="dcat:Distribution" style="swimlane;fontStyle=0;childLayout=stackLayout;horizontal=1;startSize=26;fillColor=#dae8fc;horizontalStack=0;resizeParent=1;resizeParentMax=0;resizeLast=0;collapsible=1;marginBottom=0;strokeColor=#6c8ebf;" parent="1" vertex="1">
          <mxGeometry x="410" y="470" width="140" height="90" as="geometry" />
        </mxCell>
        <mxCell id="U7aUaXZqjMmvU-UISuYW-4" style="edgeStyle=orthogonalEdgeStyle;rounded=0;orthogonalLoop=1;jettySize=auto;html=1;entryX=1;entryY=0.75;entryDx=0;entryDy=0;exitX=0.128;exitY=-0.005;exitDx=0;exitDy=0;exitPerimeter=0;" parent="1" source="oWXJO-QN1PrUgMntsN1Z-5" target="oWXJO-QN1PrUgMntsN1Z-1" edge="1">
          <mxGeometry relative="1" as="geometry">
            <mxPoint x="310" y="140" as="targetPoint" />
            <Array as="points">
              <mxPoint x="545" y="138" />
            </Array>
            <mxPoint x="545" y="220" as="sourcePoint" />
          </mxGeometry>
        </mxCell>
        <mxCell id="U7aUaXZqjMmvU-UISuYW-5" value="+cav:assesses" style="edgeLabel;html=1;align=center;verticalAlign=middle;resizable=0;points=[];" parent="U7aUaXZqjMmvU-UISuYW-4" vertex="1" connectable="0">
          <mxGeometry x="0.4561" y="-4" relative="1" as="geometry">
            <mxPoint as="offset" />
          </mxGeometry>
        </mxCell>
        <mxCell id="_GMeuCP6_tNP48IC0Cjn-27" value="1..*" style="edgeLabel;html=1;align=center;verticalAlign=middle;resizable=0;points=[];" parent="U7aUaXZqjMmvU-UISuYW-4" vertex="1" connectable="0">
          <mxGeometry x="0.0358" y="4" relative="1" as="geometry">
            <mxPoint x="-179" y="8" as="offset" />
          </mxGeometry>
        </mxCell>
        <mxCell id="U7aUaXZqjMmvU-UISuYW-8" style="edgeStyle=orthogonalEdgeStyle;rounded=0;orthogonalLoop=1;jettySize=auto;html=1;" parent="1" source="oWXJO-QN1PrUgMntsN1Z-5" target="oWXJO-QN1PrUgMntsN1Z-4" edge="1">
          <mxGeometry relative="1" as="geometry">
            <mxPoint x="520" y="400" as="targetPoint" />
            <Array as="points">
              <mxPoint x="530" y="450" />
              <mxPoint x="530" y="450" />
            </Array>
          </mxGeometry>
        </mxCell>
        <mxCell id="U7aUaXZqjMmvU-UISuYW-9" value="+cav:hasSummary" style="edgeLabel;html=1;align=center;verticalAlign=middle;resizable=0;points=[];" parent="U7aUaXZqjMmvU-UISuYW-8" vertex="1" connectable="0">
          <mxGeometry x="0.3018" y="2" relative="1" as="geometry">
            <mxPoint x="-2" y="-14" as="offset" />
          </mxGeometry>
        </mxCell>
        <mxCell id="U7aUaXZqjMmvU-UISuYW-10" style="edgeStyle=orthogonalEdgeStyle;rounded=0;orthogonalLoop=1;jettySize=auto;html=1;entryX=0.452;entryY=-0.009;entryDx=0;entryDy=0;entryPerimeter=0;" parent="1" source="oWXJO-QN1PrUgMntsN1Z-5" target="oWXJO-QN1PrUgMntsN1Z-4" edge="1">
          <mxGeometry relative="1" as="geometry">
            <Array as="points">
              <mxPoint x="473" y="330" />
            </Array>
          </mxGeometry>
        </mxCell>
        <mxCell id="U7aUaXZqjMmvU-UISuYW-11" value="+cav:hasReport" style="edgeLabel;html=1;align=center;verticalAlign=middle;resizable=0;points=[];" parent="U7aUaXZqjMmvU-UISuYW-10" vertex="1" connectable="0">
          <mxGeometry x="-0.2" y="1" relative="1" as="geometry">
            <mxPoint x="-4" y="24" as="offset" />
          </mxGeometry>
        </mxCell>
        <mxCell id="mimwsEYvyM-YJtAeoitM-84" style="edgeStyle=orthogonalEdgeStyle;rounded=0;orthogonalLoop=1;jettySize=auto;html=1;exitX=0.75;exitY=1;exitDx=0;exitDy=0;" parent="1" source="oWXJO-QN1PrUgMntsN1Z-5" edge="1">
          <mxGeometry relative="1" as="geometry">
            <Array as="points">
              <mxPoint x="615" y="425" />
            </Array>
            <mxPoint x="690" y="425" as="targetPoint" />
          </mxGeometry>
        </mxCell>
        <mxCell id="mimwsEYvyM-YJtAeoitM-85" value="+cav:resultsIn" style="edgeLabel;html=1;align=center;verticalAlign=middle;resizable=0;points=[];" parent="mimwsEYvyM-YJtAeoitM-84" vertex="1" connectable="0">
          <mxGeometry x="0.3714" relative="1" as="geometry">
            <mxPoint x="9" y="-15" as="offset" />
          </mxGeometry>
        </mxCell>
        <mxCell id="mimwsEYvyM-YJtAeoitM-86" style="edgeStyle=orthogonalEdgeStyle;rounded=0;orthogonalLoop=1;jettySize=auto;html=1;entryX=0;entryY=0.5;entryDx=0;entryDy=0;exitX=0.408;exitY=0.984;exitDx=0;exitDy=0;exitPerimeter=0;" parent="1" source="uPZSgL95swfTeqG0r7Pt-2" edge="1">
          <mxGeometry relative="1" as="geometry">
            <mxPoint x="600" y="330" as="sourcePoint" />
            <Array as="points">
              <mxPoint x="600" y="577" />
            </Array>
            <mxPoint x="700" y="577.1899999999999" as="targetPoint" />
          </mxGeometry>
        </mxCell>
        <mxCell id="mimwsEYvyM-YJtAeoitM-87" value="+cav:contextualisedBy" style="edgeLabel;html=1;align=center;verticalAlign=middle;resizable=0;points=[];" parent="mimwsEYvyM-YJtAeoitM-86" vertex="1" connectable="0">
          <mxGeometry x="0.55" relative="1" as="geometry">
            <mxPoint x="17" y="-27" as="offset" />
          </mxGeometry>
        </mxCell>
        <mxCell id="mimwsEYvyM-YJtAeoitM-109" style="edgeStyle=orthogonalEdgeStyle;rounded=0;orthogonalLoop=1;jettySize=auto;html=1;" parent="1" edge="1">
          <mxGeometry relative="1" as="geometry">
            <Array as="points">
              <mxPoint x="570" y="457" />
              <mxPoint x="570" y="1020" />
            </Array>
            <mxPoint x="981" y="1020" as="targetPoint" />
            <mxPoint x="690" y="457" as="sourcePoint" />
          </mxGeometry>
        </mxCell>
        <mxCell id="mimwsEYvyM-YJtAeoitM-110" value="+cav:formulatedBy" style="edgeLabel;html=1;align=center;verticalAlign=middle;resizable=0;points=[];" parent="mimwsEYvyM-YJtAeoitM-109" vertex="1" connectable="0">
          <mxGeometry x="0.7958" y="-3" relative="1" as="geometry">
            <mxPoint x="27" y="-5" as="offset" />
          </mxGeometry>
        </mxCell>
        <mxCell id="_GMeuCP6_tNP48IC0Cjn-26" value="0..*" style="edgeLabel;html=1;align=center;verticalAlign=middle;resizable=0;points=[];" parent="mimwsEYvyM-YJtAeoitM-109" vertex="1" connectable="0">
          <mxGeometry x="0.6676" y="-2" relative="1" as="geometry">
            <mxPoint x="166" y="8" as="offset" />
          </mxGeometry>
        </mxCell>
        <mxCell id="mimwsEYvyM-YJtAeoitM-118" style="edgeStyle=orthogonalEdgeStyle;rounded=0;orthogonalLoop=1;jettySize=auto;html=1;startArrow=none;startFill=0;exitX=0.5;exitY=0;exitDx=0;exitDy=0;" parent="1" source="oWXJO-QN1PrUgMntsN1Z-5" edge="1">
          <mxGeometry relative="1" as="geometry">
            <mxPoint x="650" y="300" as="sourcePoint" />
            <Array as="points">
              <mxPoint x="580" y="170" />
              <mxPoint x="1540" y="170" />
              <mxPoint x="1540" y="1000" />
            </Array>
            <mxPoint x="1120" y="1000" as="targetPoint" />
          </mxGeometry>
        </mxCell>
        <mxCell id="mimwsEYvyM-YJtAeoitM-119" value="+cav:performedBy" style="edgeLabel;html=1;align=center;verticalAlign=middle;resizable=0;points=[];" parent="mimwsEYvyM-YJtAeoitM-118" vertex="1" connectable="0">
          <mxGeometry x="0.8815" y="2" relative="1" as="geometry">
            <mxPoint x="-25" y="-2" as="offset" />
          </mxGeometry>
        </mxCell>
        <mxCell id="mimwsEYvyM-YJtAeoitM-120" style="edgeStyle=orthogonalEdgeStyle;rounded=0;orthogonalLoop=1;jettySize=auto;html=1;startArrow=none;startFill=0;" parent="1" source="oWXJO-QN1PrUgMntsN1Z-5" edge="1">
          <mxGeometry relative="1" as="geometry">
            <mxPoint x="559" y="260" as="sourcePoint" />
            <mxPoint x="1120" y="1030" as="targetPoint" />
            <Array as="points">
              <mxPoint x="559" y="140" />
              <mxPoint x="1560" y="140" />
              <mxPoint x="1560" y="1030" />
            </Array>
          </mxGeometry>
        </mxCell>
        <mxCell id="mimwsEYvyM-YJtAeoitM-121" value="+cav:requestedBy" style="edgeLabel;html=1;align=center;verticalAlign=middle;resizable=0;points=[];" parent="mimwsEYvyM-YJtAeoitM-120" vertex="1" connectable="0">
          <mxGeometry x="0.8952" y="3" relative="1" as="geometry">
            <mxPoint x="-24" y="-3" as="offset" />
          </mxGeometry>
        </mxCell>
        <mxCell id="mimwsEYvyM-YJtAeoitM-124" style="edgeStyle=orthogonalEdgeStyle;rounded=0;orthogonalLoop=1;jettySize=auto;html=1;startArrow=none;startFill=0;exitX=1.002;exitY=0.29;exitDx=0;exitDy=0;exitPerimeter=0;" parent="1" source="uPZSgL95swfTeqG0r7Pt-2" edge="1">
          <mxGeometry relative="1" as="geometry">
            <Array as="points">
              <mxPoint x="1500" y="290" />
              <mxPoint x="1500" y="940" />
            </Array>
            <mxPoint x="845" y="940" as="targetPoint" />
            <mxPoint x="665" y="270" as="sourcePoint" />
          </mxGeometry>
        </mxCell>
        <mxCell id="mimwsEYvyM-YJtAeoitM-125" value="+cav:documentedIn" style="edgeLabel;html=1;align=center;verticalAlign=middle;resizable=0;points=[];" parent="mimwsEYvyM-YJtAeoitM-124" vertex="1" connectable="0">
          <mxGeometry x="0.9464" y="-1" relative="1" as="geometry">
            <mxPoint x="13" y="11" as="offset" />
          </mxGeometry>
        </mxCell>
        <mxCell id="oWXJO-QN1PrUgMntsN1Z-5" value="cav:Assessment" style="swimlane;fontStyle=0;childLayout=stackLayout;horizontal=1;startSize=26;fillColor=#ffe6cc;horizontalStack=0;resizeParent=1;resizeParentMax=0;resizeLast=0;collapsible=1;marginBottom=0;strokeColor=#d79b00;" parent="1" vertex="1">
          <mxGeometry x="520" y="235" width="198" height="126" as="geometry" />
        </mxCell>
        <mxCell id="uPZSgL95swfTeqG0r7Pt-2" value="&lt;div style=&quot;text-align: left;&quot;&gt;&lt;span style=&quot;background-color: initial;&quot;&gt;dct:title: rdfs:Literal [0..*]&lt;/span&gt;&lt;/div&gt;&lt;div style=&quot;text-align: left;&quot;&gt;dct:description: rdfs:Literal&amp;nbsp;&lt;span style=&quot;background-color: initial;&quot;&gt;[0..*]&lt;/span&gt;&lt;/div&gt;&lt;div style=&quot;text-align: left;&quot;&gt;&lt;span style=&quot;background-color: initial;&quot;&gt;dct:issued: rdfs:Literal&amp;nbsp;&lt;/span&gt;&lt;span style=&quot;background-color: initial;&quot;&gt;[0..*]&lt;/span&gt;&lt;/div&gt;&lt;div style=&quot;text-align: left;&quot;&gt;dcat:releaseDate: rdfs:Literal&amp;nbsp;&lt;span style=&quot;background-color: initial;&quot;&gt;[0..*]&lt;/span&gt;&lt;/div&gt;&lt;div style=&quot;text-align: left;&quot;&gt;dcat:version: rdfs:Literal&amp;nbsp;&lt;span style=&quot;background-color: initial;&quot;&gt;[0..*]&lt;/span&gt;&lt;/div&gt;&lt;div style=&quot;text-align: left;&quot;&gt;&lt;div&gt;&lt;span style=&quot;background-color: initial;&quot;&gt;adms:status: skos:Concept [0..*]&lt;/span&gt;&lt;/div&gt;&lt;/div&gt;" style="text;html=1;align=center;verticalAlign=middle;resizable=0;points=[];autosize=1;strokeColor=none;fillColor=none;" parent="oWXJO-QN1PrUgMntsN1Z-5" vertex="1">
          <mxGeometry y="26" width="198" height="100" as="geometry" />
        </mxCell>
        <mxCell id="mimwsEYvyM-YJtAeoitM-101" style="edgeStyle=orthogonalEdgeStyle;rounded=0;orthogonalLoop=1;jettySize=auto;html=1;exitX=1;exitY=0.5;exitDx=0;exitDy=0;entryX=0.318;entryY=1.029;entryDx=0;entryDy=0;entryPerimeter=0;" parent="1" source="U7aUaXZqjMmvU-UISuYW-17" target="fesHrCpvq0W5O7hhibYu-6" edge="1">
          <mxGeometry relative="1" as="geometry">
            <mxPoint x="1040" y="500" as="targetPoint" />
          </mxGeometry>
        </mxCell>
        <mxCell id="mimwsEYvyM-YJtAeoitM-102" value="+cav:includes" style="edgeLabel;html=1;align=center;verticalAlign=middle;resizable=0;points=[];" parent="mimwsEYvyM-YJtAeoitM-101" vertex="1" connectable="0">
          <mxGeometry x="0.8071" relative="1" as="geometry">
            <mxPoint x="-5" y="4" as="offset" />
          </mxGeometry>
        </mxCell>
        <mxCell id="mimwsEYvyM-YJtAeoitM-103" style="edgeStyle=orthogonalEdgeStyle;rounded=0;orthogonalLoop=1;jettySize=auto;html=1;exitX=1;exitY=0.25;exitDx=0;exitDy=0;entryX=0.656;entryY=1.009;entryDx=0;entryDy=0;entryPerimeter=0;" parent="1" source="U7aUaXZqjMmvU-UISuYW-21" target="fesHrCpvq0W5O7hhibYu-6" edge="1">
          <mxGeometry relative="1" as="geometry">
            <mxPoint x="1132" y="530" as="targetPoint" />
          </mxGeometry>
        </mxCell>
        <mxCell id="mimwsEYvyM-YJtAeoitM-104" value="+cav:contextualises" style="edgeLabel;html=1;align=center;verticalAlign=middle;resizable=0;points=[];" parent="mimwsEYvyM-YJtAeoitM-103" vertex="1" connectable="0">
          <mxGeometry x="0.8387" y="-4" relative="1" as="geometry">
            <mxPoint x="4" y="22" as="offset" />
          </mxGeometry>
        </mxCell>
        <mxCell id="U7aUaXZqjMmvU-UISuYW-17" value="cav:Scenario" style="swimlane;fontStyle=0;childLayout=stackLayout;horizontal=1;startSize=26;fillColor=#ffe6cc;horizontalStack=0;resizeParent=1;resizeParentMax=0;resizeLast=0;collapsible=1;marginBottom=0;strokeColor=#d79b00;" parent="1" vertex="1">
          <mxGeometry x="700" y="560" width="170" height="56" as="geometry" />
        </mxCell>
        <mxCell id="fesHrCpvq0W5O7hhibYu-8" value="cav:purpose:&amp;nbsp;&lt;span style=&quot;text-align: left;&quot;&gt;rdfs:Literal [0..*]&lt;/span&gt;" style="text;html=1;align=center;verticalAlign=middle;resizable=0;points=[];autosize=1;strokeColor=none;" parent="U7aUaXZqjMmvU-UISuYW-17" vertex="1">
          <mxGeometry y="26" width="170" height="30" as="geometry" />
        </mxCell>
        <mxCell id="mimwsEYvyM-YJtAeoitM-77" style="edgeStyle=orthogonalEdgeStyle;rounded=0;orthogonalLoop=1;jettySize=auto;html=1;exitX=0.5;exitY=0;exitDx=0;exitDy=0;entryX=0.233;entryY=0.018;entryDx=0;entryDy=0;entryPerimeter=0;" parent="1" source="U7aUaXZqjMmvU-UISuYW-18" target="U7aUaXZqjMmvU-UISuYW-20" edge="1">
          <mxGeometry relative="1" as="geometry">
            <Array as="points">
              <mxPoint x="770" y="400" />
              <mxPoint x="770" y="340" />
              <mxPoint x="1375" y="340" />
            </Array>
            <mxPoint x="1375" y="430" as="targetPoint" />
          </mxGeometry>
        </mxCell>
        <mxCell id="mimwsEYvyM-YJtAeoitM-78" value="+cav:refersTo" style="edgeLabel;html=1;align=center;verticalAlign=middle;resizable=0;points=[];" parent="mimwsEYvyM-YJtAeoitM-77" vertex="1" connectable="0">
          <mxGeometry x="0.7028" y="-1" relative="1" as="geometry">
            <mxPoint x="-9" y="-11" as="offset" />
          </mxGeometry>
        </mxCell>
        <mxCell id="mimwsEYvyM-YJtAeoitM-79" style="edgeStyle=orthogonalEdgeStyle;rounded=0;orthogonalLoop=1;jettySize=auto;html=1;entryX=0.001;entryY=0.254;entryDx=0;entryDy=0;entryPerimeter=0;" parent="1" source="U7aUaXZqjMmvU-UISuYW-18" target="fesHrCpvq0W5O7hhibYu-6" edge="1">
          <mxGeometry relative="1" as="geometry">
            <Array as="points">
              <mxPoint x="947" y="454" />
            </Array>
            <mxPoint x="920" y="458" as="targetPoint" />
          </mxGeometry>
        </mxCell>
        <mxCell id="mimwsEYvyM-YJtAeoitM-80" value="+cav:refersTo" style="edgeLabel;html=1;align=center;verticalAlign=middle;resizable=0;points=[];" parent="mimwsEYvyM-YJtAeoitM-79" vertex="1" connectable="0">
          <mxGeometry x="-0.1692" y="-1" relative="1" as="geometry">
            <mxPoint x="5" y="-54" as="offset" />
          </mxGeometry>
        </mxCell>
        <mxCell id="mimwsEYvyM-YJtAeoitM-91" style="edgeStyle=orthogonalEdgeStyle;rounded=0;orthogonalLoop=1;jettySize=auto;html=1;entryX=0.5;entryY=0;entryDx=0;entryDy=0;" parent="1" source="U7aUaXZqjMmvU-UISuYW-18" target="U7aUaXZqjMmvU-UISuYW-17" edge="1">
          <mxGeometry relative="1" as="geometry">
            <Array as="points">
              <mxPoint x="785" y="520" />
              <mxPoint x="785" y="520" />
            </Array>
          </mxGeometry>
        </mxCell>
        <mxCell id="mimwsEYvyM-YJtAeoitM-92" value="+cav:refersTo" style="edgeLabel;html=1;align=center;verticalAlign=middle;resizable=0;points=[];" parent="mimwsEYvyM-YJtAeoitM-91" vertex="1" connectable="0">
          <mxGeometry x="-0.7841" y="-1" relative="1" as="geometry">
            <mxPoint x="1" y="18" as="offset" />
          </mxGeometry>
        </mxCell>
        <mxCell id="U7aUaXZqjMmvU-UISuYW-18" value="cav:Statement" style="swimlane;fontStyle=0;childLayout=stackLayout;horizontal=1;startSize=26;fillColor=#ffe6cc;horizontalStack=0;resizeParent=1;resizeParentMax=0;resizeLast=0;collapsible=1;marginBottom=0;strokeColor=#d79b00;" parent="1" vertex="1">
          <mxGeometry x="690" y="400" width="203" height="86" as="geometry" />
        </mxCell>
        <mxCell id="fesHrCpvq0W5O7hhibYu-9" value="&lt;div style=&quot;text-align: left&quot;&gt;&lt;span&gt;cav:type:&amp;nbsp;&lt;/span&gt;&lt;span style=&quot;background-color: initial;&quot;&gt;skos:Concept [0..*]&lt;/span&gt;&lt;/div&gt;&lt;div style=&quot;text-align: left&quot;&gt;&lt;span&gt;cav:interpretation:&amp;nbsp;&lt;/span&gt;&lt;span style=&quot;background-color: initial;&quot;&gt;skos:Concept&lt;/span&gt;&lt;span style=&quot;background-color: initial;&quot;&gt;&amp;nbsp;&lt;/span&gt;&lt;span style=&quot;background-color: initial;&quot;&gt;[0..*]&lt;/span&gt;&lt;/div&gt;&lt;div style=&quot;text-align: left&quot;&gt;&lt;span&gt;cav:judgement:&amp;nbsp;&lt;/span&gt;&lt;span style=&quot;background-color: initial;&quot;&gt;rdfs:Literal&lt;/span&gt;&lt;span style=&quot;background-color: initial;&quot;&gt;&amp;nbsp;&lt;/span&gt;&lt;span style=&quot;background-color: initial;&quot;&gt;[0..*]&lt;/span&gt;&lt;/div&gt;" style="text;html=1;align=center;verticalAlign=middle;resizable=0;points=[];autosize=1;strokeColor=none;" parent="U7aUaXZqjMmvU-UISuYW-18" vertex="1">
          <mxGeometry y="26" width="203" height="60" as="geometry" />
        </mxCell>
        <mxCell id="U7aUaXZqjMmvU-UISuYW-19" value="cccev:Criterion" style="swimlane;fontStyle=0;childLayout=stackLayout;horizontal=1;startSize=26;fillColor=#1ba1e2;horizontalStack=0;resizeParent=1;resizeParentMax=0;resizeLast=0;collapsible=1;marginBottom=0;strokeColor=#006EAF;fontColor=#ffffff;" parent="1" vertex="1">
          <mxGeometry x="1000" y="420" width="170" height="56" as="geometry" />
        </mxCell>
        <mxCell id="fesHrCpvq0W5O7hhibYu-6" value="&lt;div style=&quot;text-align: left&quot;&gt;&lt;br&gt;&lt;/div&gt;" style="text;html=1;align=center;verticalAlign=middle;resizable=0;points=[];autosize=1;strokeColor=none;" parent="U7aUaXZqjMmvU-UISuYW-19" vertex="1">
          <mxGeometry y="26" width="170" height="30" as="geometry" />
        </mxCell>
        <mxCell id="mimwsEYvyM-YJtAeoitM-105" style="edgeStyle=orthogonalEdgeStyle;rounded=0;orthogonalLoop=1;jettySize=auto;html=1;exitX=0.25;exitY=1;exitDx=0;exitDy=0;entryX=0.999;entryY=0.68;entryDx=0;entryDy=0;entryPerimeter=0;" parent="1" source="U7aUaXZqjMmvU-UISuYW-20" target="fesHrCpvq0W5O7hhibYu-10" edge="1">
          <mxGeometry relative="1" as="geometry">
            <mxPoint x="870" y="780" as="targetPoint" />
            <Array as="points">
              <mxPoint x="1375" y="746" />
            </Array>
          </mxGeometry>
        </mxCell>
        <mxCell id="mimwsEYvyM-YJtAeoitM-106" value="+cav:basedOn" style="edgeLabel;html=1;align=center;verticalAlign=middle;resizable=0;points=[];" parent="mimwsEYvyM-YJtAeoitM-105" vertex="1" connectable="0">
          <mxGeometry x="0.7775" relative="1" as="geometry">
            <mxPoint x="-13" y="10" as="offset" />
          </mxGeometry>
        </mxCell>
        <mxCell id="mimwsEYvyM-YJtAeoitM-107" style="edgeStyle=orthogonalEdgeStyle;rounded=0;orthogonalLoop=1;jettySize=auto;html=1;entryX=1.002;entryY=0.102;entryDx=0;entryDy=0;exitX=0.5;exitY=1;exitDx=0;exitDy=0;entryPerimeter=0;" parent="1" source="U7aUaXZqjMmvU-UISuYW-20" target="U7aUaXZqjMmvU-UISuYW-22" edge="1">
          <mxGeometry relative="1" as="geometry">
            <Array as="points">
              <mxPoint x="1400" y="890" />
              <mxPoint x="861" y="890" />
            </Array>
          </mxGeometry>
        </mxCell>
        <mxCell id="mimwsEYvyM-YJtAeoitM-108" value="+cav:hasInput" style="edgeLabel;html=1;align=center;verticalAlign=middle;resizable=0;points=[];" parent="mimwsEYvyM-YJtAeoitM-107" vertex="1" connectable="0">
          <mxGeometry x="0.8395" y="-2" relative="1" as="geometry">
            <mxPoint x="-17" y="13" as="offset" />
          </mxGeometry>
        </mxCell>
        <mxCell id="mimwsEYvyM-YJtAeoitM-115" style="edgeStyle=orthogonalEdgeStyle;rounded=0;orthogonalLoop=1;jettySize=auto;html=1;entryX=1.002;entryY=0.12;entryDx=0;entryDy=0;startArrow=classic;startFill=1;entryPerimeter=0;" parent="1" source="U7aUaXZqjMmvU-UISuYW-20" target="U7aUaXZqjMmvU-UISuYW-23" edge="1">
          <mxGeometry relative="1" as="geometry">
            <mxPoint x="1110" y="950" as="targetPoint" />
            <Array as="points">
              <mxPoint x="1450" y="974" />
              <mxPoint x="1121" y="974" />
            </Array>
          </mxGeometry>
        </mxCell>
        <mxCell id="mimwsEYvyM-YJtAeoitM-116" value="+cav:providedBy" style="edgeLabel;html=1;align=center;verticalAlign=middle;resizable=0;points=[];" parent="mimwsEYvyM-YJtAeoitM-115" vertex="1" connectable="0">
          <mxGeometry x="0.7789" y="-1" relative="1" as="geometry">
            <mxPoint as="offset" />
          </mxGeometry>
        </mxCell>
        <mxCell id="mimwsEYvyM-YJtAeoitM-117" value="+cav:providesScore" style="edgeLabel;html=1;align=center;verticalAlign=middle;resizable=0;points=[];" parent="mimwsEYvyM-YJtAeoitM-115" vertex="1" connectable="0">
          <mxGeometry x="-0.9079" y="3" relative="1" as="geometry">
            <mxPoint x="-3" as="offset" />
          </mxGeometry>
        </mxCell>
        <mxCell id="_GMeuCP6_tNP48IC0Cjn-24" value="0..1" style="edgeLabel;html=1;align=center;verticalAlign=middle;resizable=0;points=[];" parent="mimwsEYvyM-YJtAeoitM-115" vertex="1" connectable="0">
          <mxGeometry x="0.4744" y="-2" relative="1" as="geometry">
            <mxPoint x="-196" y="-12" as="offset" />
          </mxGeometry>
        </mxCell>
        <mxCell id="U7aUaXZqjMmvU-UISuYW-20" value="cav:Score" style="swimlane;fontStyle=0;childLayout=stackLayout;horizontal=1;startSize=26;fillColor=#ffe6cc;horizontalStack=0;resizeParent=1;resizeParentMax=0;resizeLast=0;collapsible=1;marginBottom=0;strokeColor=#d79b00;" parent="1" vertex="1">
          <mxGeometry x="1340" y="439" width="150" height="56" as="geometry" />
        </mxCell>
        <mxCell id="fesHrCpvq0W5O7hhibYu-5" value="cav:value:&amp;nbsp;&lt;span style=&quot;text-align: left;&quot;&gt;rdfs:Literal&lt;/span&gt;&lt;span style=&quot;text-align: left;&quot;&gt;&amp;nbsp;[0..*]&lt;/span&gt;" style="text;html=1;align=center;verticalAlign=middle;resizable=0;points=[];autosize=1;strokeColor=none;" parent="U7aUaXZqjMmvU-UISuYW-20" vertex="1">
          <mxGeometry y="26" width="150" height="30" as="geometry" />
        </mxCell>
        <mxCell id="U7aUaXZqjMmvU-UISuYW-21" value="cav:EvaluationContext" style="swimlane;fontStyle=0;childLayout=stackLayout;horizontal=1;startSize=26;fillColor=#ffe6cc;horizontalStack=0;resizeParent=1;resizeParentMax=0;resizeLast=0;collapsible=1;marginBottom=0;strokeColor=#d79b00;" parent="1" vertex="1">
          <mxGeometry x="670" y="700" width="250" height="56" as="geometry" />
        </mxCell>
        <mxCell id="fesHrCpvq0W5O7hhibYu-10" value="cav:instructionDescription: rdfs:Literal&amp;nbsp;[0..*]" style="text;html=1;align=left;verticalAlign=middle;resizable=0;points=[];autosize=1;strokeColor=none;" parent="U7aUaXZqjMmvU-UISuYW-21" vertex="1">
          <mxGeometry y="26" width="250" height="30" as="geometry" />
        </mxCell>
        <mxCell id="U7aUaXZqjMmvU-UISuYW-22" value="rdfs:Resource" style="swimlane;fontStyle=0;childLayout=stackLayout;horizontal=1;startSize=26;fillColor=#f8cecc;horizontalStack=0;resizeParent=1;resizeParentMax=0;resizeLast=0;collapsible=1;marginBottom=0;strokeColor=#b85450;" parent="1" vertex="1">
          <mxGeometry x="705" y="880" width="140" height="90" as="geometry" />
        </mxCell>
        <mxCell id="U7aUaXZqjMmvU-UISuYW-23" value="foaf:Agent" style="swimlane;fontStyle=0;childLayout=stackLayout;horizontal=1;startSize=26;fillColor=#e1d5e7;horizontalStack=0;resizeParent=1;resizeParentMax=0;resizeLast=0;collapsible=1;marginBottom=0;strokeColor=#9673a6;" parent="1" vertex="1">
          <mxGeometry x="980.5" y="960" width="140" height="120" as="geometry" />
        </mxCell>
        <mxCell id="mimwsEYvyM-YJtAeoitM-93" style="edgeStyle=orthogonalEdgeStyle;rounded=0;orthogonalLoop=1;jettySize=auto;html=1;entryX=1;entryY=0.25;entryDx=0;entryDy=0;exitX=0.75;exitY=0;exitDx=0;exitDy=0;" parent="1" source="U7aUaXZqjMmvU-UISuYW-17" target="U7aUaXZqjMmvU-UISuYW-17" edge="1">
          <mxGeometry relative="1" as="geometry">
            <Array as="points">
              <mxPoint x="827" y="540" />
              <mxPoint x="880" y="540" />
              <mxPoint x="880" y="574" />
            </Array>
          </mxGeometry>
        </mxCell>
        <mxCell id="mimwsEYvyM-YJtAeoitM-94" value="+cav:definesSub" style="edgeLabel;html=1;align=center;verticalAlign=middle;resizable=0;points=[];" parent="mimwsEYvyM-YJtAeoitM-93" vertex="1" connectable="0">
          <mxGeometry x="0.4589" y="2" relative="1" as="geometry">
            <mxPoint x="8" y="-26" as="offset" />
          </mxGeometry>
        </mxCell>
        <mxCell id="fesHrCpvq0W5O7hhibYu-2" value="0..*" style="edgeLabel;html=1;align=center;verticalAlign=middle;resizable=0;points=[];" parent="1" vertex="1" connectable="0">
          <mxGeometry x="1370" y="430" as="geometry">
            <mxPoint x="-8" y="-1" as="offset" />
          </mxGeometry>
        </mxCell>
        <mxCell id="fesHrCpvq0W5O7hhibYu-4" value="0..*" style="edgeLabel;html=1;align=center;verticalAlign=middle;resizable=0;points=[];" parent="1" vertex="1" connectable="0">
          <mxGeometry x="1129.9994442075133" y="989.9992230520563" as="geometry">
            <mxPoint x="3" y="-1" as="offset" />
          </mxGeometry>
        </mxCell>
        <mxCell id="YMAX7wcl1Bc5b4iZy23n-1" style="edgeStyle=orthogonalEdgeStyle;rounded=0;orthogonalLoop=1;jettySize=auto;html=1;" parent="1" source="uPZSgL95swfTeqG0r7Pt-2" edge="1">
          <mxGeometry relative="1" as="geometry">
            <mxPoint x="714" y="312" as="sourcePoint" />
            <mxPoint x="1430" y="440" as="targetPoint" />
            <Array as="points">
              <mxPoint x="1430" y="310" />
            </Array>
          </mxGeometry>
        </mxCell>
        <mxCell id="YMAX7wcl1Bc5b4iZy23n-2" value="+cav:considers" style="edgeLabel;html=1;align=center;verticalAlign=middle;resizable=0;points=[];fontSize=10;" parent="YMAX7wcl1Bc5b4iZy23n-1" vertex="1" connectable="0">
          <mxGeometry x="0.9083" y="-1" relative="1" as="geometry">
            <mxPoint x="-8" y="-16" as="offset" />
          </mxGeometry>
        </mxCell>
        <mxCell id="YMAX7wcl1Bc5b4iZy23n-3" value="0..*" style="edgeLabel;html=1;align=center;verticalAlign=middle;resizable=0;points=[];" parent="YMAX7wcl1Bc5b4iZy23n-1" vertex="1" connectable="0">
          <mxGeometry x="0.8211" y="-1" relative="1" as="geometry">
            <mxPoint x="-18" y="62" as="offset" />
          </mxGeometry>
        </mxCell>
        <mxCell id="_GMeuCP6_tNP48IC0Cjn-1" value="0..*" style="edgeLabel;html=1;align=center;verticalAlign=middle;resizable=0;points=[];" parent="1" vertex="1" connectable="0">
          <mxGeometry x="1469.9994442075133" y="514.9992230520563" as="geometry">
            <mxPoint x="-6" y="-9" as="offset" />
          </mxGeometry>
        </mxCell>
        <mxCell id="_GMeuCP6_tNP48IC0Cjn-2" value="0..*" style="edgeLabel;html=1;align=center;verticalAlign=middle;resizable=0;points=[];" parent="1" vertex="1" connectable="0">
          <mxGeometry x="1329.9994442075133" y="485.9992230520563" as="geometry">
            <mxPoint x="-6" y="-9" as="offset" />
          </mxGeometry>
        </mxCell>
        <mxCell id="_GMeuCP6_tNP48IC0Cjn-3" value="1" style="edgeLabel;html=1;align=center;verticalAlign=middle;resizable=0;points=[];" parent="1" vertex="1" connectable="0">
          <mxGeometry x="1179.9994442075133" y="485.9992230520563" as="geometry">
            <mxPoint x="-6" y="-9" as="offset" />
          </mxGeometry>
        </mxCell>
        <mxCell id="_GMeuCP6_tNP48IC0Cjn-4" value="0..*" style="edgeLabel;html=1;align=center;verticalAlign=middle;resizable=0;points=[];" parent="1" vertex="1" connectable="0">
          <mxGeometry x="989.9994442075133" y="475.9992230520563" as="geometry">
            <mxPoint x="-6" y="-9" as="offset" />
          </mxGeometry>
        </mxCell>
        <mxCell id="_GMeuCP6_tNP48IC0Cjn-5" value="0..*" style="edgeLabel;html=1;align=center;verticalAlign=middle;resizable=0;points=[];" parent="1" vertex="1" connectable="0">
          <mxGeometry x="689.9994442075133" y="449.9992230520563" as="geometry">
            <mxPoint x="-19" y="-11" as="offset" />
          </mxGeometry>
        </mxCell>
        <mxCell id="_GMeuCP6_tNP48IC0Cjn-6" value="1" style="edgeLabel;html=1;align=center;verticalAlign=middle;resizable=0;points=[];" parent="1" vertex="1" connectable="0">
          <mxGeometry x="689.9994442075133" y="569.9992230520563" as="geometry">
            <mxPoint x="-3" y="16" as="offset" />
          </mxGeometry>
        </mxCell>
        <mxCell id="_GMeuCP6_tNP48IC0Cjn-7" value="0..*" style="edgeLabel;html=1;align=center;verticalAlign=middle;resizable=0;points=[];" parent="1" vertex="1" connectable="0">
          <mxGeometry x="869.9994442075133" y="559.9992230520563" as="geometry">
            <mxPoint x="-6" y="-9" as="offset" />
          </mxGeometry>
        </mxCell>
        <mxCell id="_GMeuCP6_tNP48IC0Cjn-8" value="0..*" style="edgeLabel;html=1;align=center;verticalAlign=middle;resizable=0;points=[];" parent="1" vertex="1" connectable="0">
          <mxGeometry x="1079.9994442075133" y="494.9992230520563" as="geometry">
            <mxPoint x="-6" y="-9" as="offset" />
          </mxGeometry>
        </mxCell>
        <mxCell id="_GMeuCP6_tNP48IC0Cjn-9" value="1" style="edgeLabel;html=1;align=center;verticalAlign=middle;resizable=0;points=[];" parent="1" vertex="1" connectable="0">
          <mxGeometry x="1129.9994442075133" y="494.9992230520563" as="geometry">
            <mxPoint x="-6" y="-9" as="offset" />
          </mxGeometry>
        </mxCell>
        <mxCell id="_GMeuCP6_tNP48IC0Cjn-10" value="0..*" style="edgeLabel;html=1;align=center;verticalAlign=middle;resizable=0;points=[];" parent="1" vertex="1" connectable="0">
          <mxGeometry x="939.9994442075133" y="739.9992230520563" as="geometry">
            <mxPoint x="-6" y="-9" as="offset" />
          </mxGeometry>
        </mxCell>
        <mxCell id="_GMeuCP6_tNP48IC0Cjn-11" value="1" style="edgeLabel;html=1;align=center;verticalAlign=middle;resizable=0;points=[];" parent="1" vertex="1" connectable="0">
          <mxGeometry x="790.4994442075133" y="639.9992230520563" as="geometry">
            <mxPoint x="-6" y="-9" as="offset" />
          </mxGeometry>
        </mxCell>
        <mxCell id="_GMeuCP6_tNP48IC0Cjn-13" value="0..*" style="edgeLabel;html=1;align=center;verticalAlign=middle;resizable=0;points=[];" parent="1" vertex="1" connectable="0">
          <mxGeometry x="759.9994442075133" y="699.9992230520563" as="geometry">
            <mxPoint x="-6" y="-9" as="offset" />
          </mxGeometry>
        </mxCell>
        <mxCell id="_GMeuCP6_tNP48IC0Cjn-14" value="0..*" style="edgeLabel;html=1;align=center;verticalAlign=middle;resizable=0;points=[];" parent="1" vertex="1" connectable="0">
          <mxGeometry x="774.9994442075133" y="549.9992230520563" as="geometry">
            <mxPoint x="-6" y="-9" as="offset" />
          </mxGeometry>
        </mxCell>
        <mxCell id="_GMeuCP6_tNP48IC0Cjn-15" value="0..*" style="edgeLabel;html=1;align=center;verticalAlign=middle;resizable=0;points=[];" parent="1" vertex="1" connectable="0">
          <mxGeometry x="479.9994442075133" y="461.9992230520563" as="geometry">
            <mxPoint x="-19" y="-11" as="offset" />
          </mxGeometry>
        </mxCell>
        <mxCell id="_GMeuCP6_tNP48IC0Cjn-16" value="0..*" style="edgeLabel;html=1;align=center;verticalAlign=middle;resizable=0;points=[];" parent="1" vertex="1" connectable="0">
          <mxGeometry x="529.9994442075133" y="461.9992230520563" as="geometry">
            <mxPoint x="-19" y="-11" as="offset" />
          </mxGeometry>
        </mxCell>
        <mxCell id="_GMeuCP6_tNP48IC0Cjn-17" value="0..*" style="edgeLabel;html=1;align=center;verticalAlign=middle;resizable=0;points=[];" parent="1" vertex="1" connectable="0">
          <mxGeometry x="689.9994442075133" y="229.99922305205632" as="geometry">
            <mxPoint x="-19" y="-11" as="offset" />
          </mxGeometry>
        </mxCell>
        <mxCell id="_GMeuCP6_tNP48IC0Cjn-18" value="0..1" style="edgeLabel;html=1;align=center;verticalAlign=middle;resizable=0;points=[];" parent="1" vertex="1" connectable="0">
          <mxGeometry x="759.9994442075133" y="245.99922305205632" as="geometry">
            <mxPoint x="-19" y="-11" as="offset" />
          </mxGeometry>
        </mxCell>
        <mxCell id="_GMeuCP6_tNP48IC0Cjn-20" value="0..*" style="edgeLabel;html=1;align=center;verticalAlign=middle;resizable=0;points=[];" parent="1" vertex="1" connectable="0">
          <mxGeometry x="699.9994442075133" y="924.9992230520563" as="geometry">
            <mxPoint x="-6" y="-9" as="offset" />
          </mxGeometry>
        </mxCell>
        <mxCell id="_GMeuCP6_tNP48IC0Cjn-21" value="0..1" style="edgeLabel;html=1;align=center;verticalAlign=middle;resizable=0;points=[];" parent="1" vertex="1" connectable="0">
          <mxGeometry x="864.9994442075133" y="879.9992230520563" as="geometry">
            <mxPoint x="-6" y="-9" as="offset" />
          </mxGeometry>
        </mxCell>
        <mxCell id="_GMeuCP6_tNP48IC0Cjn-22" value="0..*" style="edgeLabel;html=1;align=center;verticalAlign=middle;resizable=0;points=[];" parent="1" vertex="1" connectable="0">
          <mxGeometry x="864.9994442075133" y="929.9992230520563" as="geometry">
            <mxPoint x="-6" y="-9" as="offset" />
          </mxGeometry>
        </mxCell>
        <mxCell id="_GMeuCP6_tNP48IC0Cjn-23" value="0..*" style="edgeLabel;html=1;align=center;verticalAlign=middle;resizable=0;points=[];" parent="1" vertex="1" connectable="0">
          <mxGeometry x="1129.9994442075133" y="1019.9992230520563" as="geometry">
            <mxPoint x="3" y="-1" as="offset" />
          </mxGeometry>
        </mxCell>
        <mxCell id="_GMeuCP6_tNP48IC0Cjn-25" value="0..*" style="edgeLabel;html=1;align=center;verticalAlign=middle;resizable=0;points=[];" parent="1" vertex="1" connectable="0">
          <mxGeometry x="1129.9994442075133" y="1029.9992230520563" as="geometry">
            <mxPoint x="1" y="20" as="offset" />
          </mxGeometry>
        </mxCell>
        <mxCell id="NowrzDECGKJkGiWJKNAH-1" value="" style="endArrow=block;endSize=16;endFill=0;html=1;rounded=0;exitX=-0.017;exitY=0.504;exitDx=0;exitDy=0;exitPerimeter=0;entryX=0.5;entryY=1;entryDx=0;entryDy=0;" parent="1" source="fesHrCpvq0W5O7hhibYu-8" target="oWXJO-QN1PrUgMntsN1Z-3" edge="1">
          <mxGeometry width="160" relative="1" as="geometry">
            <mxPoint x="680" y="600" as="sourcePoint" />
            <mxPoint x="130" y="340" as="targetPoint" />
            <Array as="points">
              <mxPoint x="120" y="600" />
            </Array>
          </mxGeometry>
        </mxCell>
        <mxCell id="NowrzDECGKJkGiWJKNAH-4" style="edgeStyle=orthogonalEdgeStyle;rounded=0;orthogonalLoop=1;jettySize=auto;html=1;" parent="1" edge="1">
          <mxGeometry relative="1" as="geometry">
            <mxPoint x="775" y="760" as="sourcePoint" />
            <mxPoint x="775" y="880" as="targetPoint" />
            <Array as="points">
              <mxPoint x="775" y="756" />
            </Array>
          </mxGeometry>
        </mxCell>
        <mxCell id="NowrzDECGKJkGiWJKNAH-5" value="+cav:relatesTo" style="edgeLabel;html=1;align=center;verticalAlign=middle;resizable=0;points=[];" parent="NowrzDECGKJkGiWJKNAH-4" vertex="1" connectable="0">
          <mxGeometry x="-0.7841" y="-1" relative="1" as="geometry">
            <mxPoint x="1" y="80" as="offset" />
          </mxGeometry>
        </mxCell>
        <mxCell id="NowrzDECGKJkGiWJKNAH-6" value="1" style="edgeLabel;html=1;align=center;verticalAlign=middle;resizable=0;points=[];" parent="1" vertex="1" connectable="0">
          <mxGeometry x="790.4994442075133" y="869.9992230520563" as="geometry">
            <mxPoint y="-2" as="offset" />
          </mxGeometry>
        </mxCell>
        <mxCell id="80y6WsIAAryet1fHFppi-1" value="sch:ContactPoint" style="swimlane;fontStyle=0;childLayout=stackLayout;horizontal=1;startSize=26;fillColor=#CC99FF;horizontalStack=0;resizeParent=1;resizeParentMax=0;resizeLast=0;collapsible=1;marginBottom=0;strokeColor=#b85450;" parent="1" vertex="1">
          <mxGeometry x="705" y="1073" width="140" height="52" as="geometry" />
        </mxCell>
        <mxCell id="80y6WsIAAryet1fHFppi-2" value="+sch:contactPoint" style="endArrow=open;endFill=1;endSize=12;html=1;rounded=0;exitX=0.25;exitY=1;exitDx=0;exitDy=0;entryX=1;entryY=0.75;entryDx=0;entryDy=0;" parent="1" source="U7aUaXZqjMmvU-UISuYW-23" target="80y6WsIAAryet1fHFppi-1" edge="1">
          <mxGeometry x="0.1626" y="8" width="160" relative="1" as="geometry">
            <mxPoint x="775" y="1073" as="sourcePoint" />
            <mxPoint x="1035" y="1080" as="targetPoint" />
            <mxPoint as="offset" />
            <Array as="points">
              <mxPoint x="1016" y="1112" />
            </Array>
          </mxGeometry>
        </mxCell>
        <mxCell id="80y6WsIAAryet1fHFppi-3" value="&lt;font style=&quot;font-size: 9px&quot;&gt;The ContactPoint is an instance of a subclass of foaf:Agent (e.g. an org:Organization)&lt;/font&gt;" style="shape=note;whiteSpace=wrap;html=1;backgroundOutline=1;darkOpacity=0.05;size=18;" parent="1" vertex="1">
          <mxGeometry x="1060" y="1100" width="120" height="64" as="geometry" />
        </mxCell>
        <mxCell id="80y6WsIAAryet1fHFppi-4" value="" style="endArrow=none;dashed=1;html=1;rounded=0;fontSize=9;entryX=0.5;entryY=1;entryDx=0;entryDy=0;entryPerimeter=0;" parent="1" edge="1">
          <mxGeometry width="50" height="50" relative="1" as="geometry">
            <mxPoint x="1020" y="1100" as="sourcePoint" />
            <mxPoint x="1060" y="1122.5" as="targetPoint" />
          </mxGeometry>
        </mxCell>
        <mxCell id="oWXJO-QN1PrUgMntsN1Z-2" value="cav:Asset" style="swimlane;fontStyle=0;childLayout=stackLayout;horizontal=1;startSize=26;fillColor=#ffe6cc;horizontalStack=0;resizeParent=1;resizeParentMax=0;resizeLast=0;collapsible=1;marginBottom=0;strokeColor=#d79b00;" parent="1" vertex="1">
          <mxGeometry x="240" y="270" width="220" height="56" as="geometry" />
        </mxCell>
        <mxCell id="fesHrCpvq0W5O7hhibYu-12" value="cav:valueDescription: rdfs:Literal [0..*]" style="text;html=1;align=left;verticalAlign=middle;resizable=0;points=[];autosize=1;strokeColor=none;" parent="oWXJO-QN1PrUgMntsN1Z-2" vertex="1">
          <mxGeometry y="26" width="220" height="30" as="geometry" />
        </mxCell>
        <mxCell id="ZLzGJZKhvezz7QSRHUm2-7" value="" style="endArrow=block;endSize=16;endFill=0;html=1;rounded=0;exitX=-0.001;exitY=0.409;exitDx=0;exitDy=0;exitPerimeter=0;entryX=1;entryY=0.5;entryDx=0;entryDy=0;" parent="1" source="oWXJO-QN1PrUgMntsN1Z-2" target="oWXJO-QN1PrUgMntsN1Z-3" edge="1">
          <mxGeometry width="160" relative="1" as="geometry">
            <mxPoint x="240" y="292" as="sourcePoint" />
            <mxPoint x="210" y="292.41" as="targetPoint" />
          </mxGeometry>
        </mxCell>
        <mxCell id="ZLzGJZKhvezz7QSRHUm2-8" value="" style="endArrow=block;endSize=16;endFill=0;html=1;rounded=0;entryX=0.5;entryY=1;entryDx=0;entryDy=0;exitX=0.5;exitY=0;exitDx=0;exitDy=0;" parent="1" source="oWXJO-QN1PrUgMntsN1Z-3" target="oWXJO-QN1PrUgMntsN1Z-1" edge="1">
          <mxGeometry width="160" relative="1" as="geometry">
            <mxPoint x="140" y="240" as="sourcePoint" />
            <mxPoint x="109.5" y="222" as="targetPoint" />
          </mxGeometry>
        </mxCell>
        <mxCell id="dHieGXcMUuMrBPp_i3lD-9" value="&lt;font style=&quot;font-size: 9px&quot;&gt;This is an ADMS Asset&lt;/font&gt;" style="shape=note;whiteSpace=wrap;html=1;backgroundOutline=1;darkOpacity=0.05;size=18;" parent="1" vertex="1">
          <mxGeometry x="290" y="182" width="90" height="64" as="geometry" />
        </mxCell>
        <mxCell id="dHieGXcMUuMrBPp_i3lD-10" value="" style="endArrow=none;dashed=1;html=1;rounded=0;fontSize=9;exitX=0.56;exitY=-0.018;exitDx=0;exitDy=0;exitPerimeter=0;entryX=0.596;entryY=0.994;entryDx=0;entryDy=0;entryPerimeter=0;" parent="1" source="oWXJO-QN1PrUgMntsN1Z-2" target="dHieGXcMUuMrBPp_i3lD-9" edge="1">
          <mxGeometry width="50" height="50" relative="1" as="geometry">
            <mxPoint x="200" y="190" as="sourcePoint" />
            <mxPoint x="400" y="250" as="targetPoint" />
          </mxGeometry>
        </mxCell>
        <mxCell id="uPZSgL95swfTeqG0r7Pt-5" value="" style="endArrow=classic;startArrow=classic;html=1;rounded=0;entryX=1.005;entryY=0.087;entryDx=0;entryDy=0;entryPerimeter=0;" parent="1" target="oWXJO-QN1PrUgMntsN1Z-5" edge="1">
          <mxGeometry width="50" height="50" relative="1" as="geometry">
            <mxPoint x="690" y="234" as="sourcePoint" />
            <mxPoint x="730" y="280" as="targetPoint" />
            <Array as="points">
              <mxPoint x="690" y="200" />
              <mxPoint x="730" y="200" />
              <mxPoint x="730" y="246" />
            </Array>
          </mxGeometry>
        </mxCell>
        <mxCell id="uPZSgL95swfTeqG0r7Pt-11" value="+cav:triggers" style="edgeLabel;html=1;align=center;verticalAlign=middle;resizable=0;points=[];" parent="uPZSgL95swfTeqG0r7Pt-5" vertex="1" connectable="0">
          <mxGeometry x="-0.01" y="-2" relative="1" as="geometry">
            <mxPoint x="-82" y="-2" as="offset" />
          </mxGeometry>
        </mxCell>
        <mxCell id="uPZSgL95swfTeqG0r7Pt-8" value="" style="endArrow=classic;html=1;rounded=0;entryX=0.051;entryY=0;entryDx=0;entryDy=0;entryPerimeter=0;exitX=0;exitY=0.079;exitDx=0;exitDy=0;exitPerimeter=0;" parent="1" source="oWXJO-QN1PrUgMntsN1Z-5" target="oWXJO-QN1PrUgMntsN1Z-5" edge="1">
          <mxGeometry width="50" height="50" relative="1" as="geometry">
            <mxPoint x="490" y="280" as="sourcePoint" />
            <mxPoint x="540" y="240" as="targetPoint" />
            <Array as="points">
              <mxPoint x="490" y="245" />
              <mxPoint x="490" y="200" />
              <mxPoint x="530" y="200" />
            </Array>
          </mxGeometry>
        </mxCell>
        <mxCell id="uPZSgL95swfTeqG0r7Pt-9" value="+dcat:previousVersion" style="edgeLabel;html=1;align=center;verticalAlign=middle;resizable=0;points=[];" parent="uPZSgL95swfTeqG0r7Pt-8" vertex="1" connectable="0">
          <mxGeometry x="0.2171" y="-1" relative="1" as="geometry">
            <mxPoint x="-46" y="-19" as="offset" />
          </mxGeometry>
        </mxCell>
        <mxCell id="uPZSgL95swfTeqG0r7Pt-10" value="0..1" style="edgeLabel;html=1;align=center;verticalAlign=middle;resizable=0;points=[];" parent="1" vertex="1" connectable="0">
          <mxGeometry x="529.9994442075133" y="229.99922305205632" as="geometry">
            <mxPoint x="-19" y="-11" as="offset" />
          </mxGeometry>
        </mxCell>
        <mxCell id="ZLzGJZKhvezz7QSRHUm2-4" value="" style="endArrow=block;endSize=16;endFill=0;html=1;rounded=0;entryX=0.994;entryY=0.393;entryDx=0;entryDy=0;entryPerimeter=0;exitX=-0.014;exitY=0.308;exitDx=0;exitDy=0;exitPerimeter=0;" parent="1" source="uPZSgL95swfTeqG0r7Pt-2" target="oWXJO-QN1PrUgMntsN1Z-2" edge="1">
          <mxGeometry width="160" relative="1" as="geometry">
            <mxPoint x="520" y="257" as="sourcePoint" />
            <mxPoint x="680" y="255" as="targetPoint" />
          </mxGeometry>
        </mxCell>
        <mxCell id="uPZSgL95swfTeqG0r7Pt-12" value="+cav:triggeredFrom" style="edgeLabel;html=1;align=center;verticalAlign=middle;resizable=0;points=[];" parent="1" vertex="1" connectable="0">
          <mxGeometry x="790.4968965517241" y="213.99999999999994" as="geometry">
            <mxPoint x="-2" as="offset" />
          </mxGeometry>
        </mxCell>
        <mxCell id="uPZSgL95swfTeqG0r7Pt-13" value="" style="endArrow=classic;startArrow=classic;html=1;rounded=0;entryX=0.429;entryY=1.046;entryDx=0;entryDy=0;entryPerimeter=0;exitX=0.412;exitY=0;exitDx=0;exitDy=0;exitPerimeter=0;" parent="1" source="U7aUaXZqjMmvU-UISuYW-21" target="fesHrCpvq0W5O7hhibYu-8" edge="1">
          <mxGeometry width="50" height="50" relative="1" as="geometry">
            <mxPoint x="700" y="670" as="sourcePoint" />
            <mxPoint x="750" y="620" as="targetPoint" />
          </mxGeometry>
        </mxCell>
        <mxCell id="uPZSgL95swfTeqG0r7Pt-14" value="+cav:definedBy" style="edgeLabel;html=1;align=center;verticalAlign=middle;resizable=0;points=[];" parent="uPZSgL95swfTeqG0r7Pt-13" vertex="1" connectable="0">
          <mxGeometry x="0.2853" relative="1" as="geometry">
            <mxPoint x="-43" y="-7" as="offset" />
          </mxGeometry>
        </mxCell>
        <mxCell id="uPZSgL95swfTeqG0r7Pt-15" value="+cav:defines" style="edgeLabel;html=1;align=center;verticalAlign=middle;resizable=0;points=[];" parent="1" vertex="1" connectable="0">
          <mxGeometry x="820.0048132172187" y="679.9966858089701" as="geometry" />
        </mxCell>
        <mxCell id="uPZSgL95swfTeqG0r7Pt-16" value="" style="endArrow=classic;startArrow=classic;html=1;rounded=0;entryX=-0.005;entryY=0.389;entryDx=0;entryDy=0;entryPerimeter=0;exitX=1;exitY=0.467;exitDx=0;exitDy=0;exitPerimeter=0;" parent="1" source="fesHrCpvq0W5O7hhibYu-6" target="U7aUaXZqjMmvU-UISuYW-20" edge="1">
          <mxGeometry width="50" height="50" relative="1" as="geometry">
            <mxPoint x="1230" y="485" as="sourcePoint" />
            <mxPoint x="1280" y="435" as="targetPoint" />
          </mxGeometry>
        </mxCell>
        <mxCell id="uPZSgL95swfTeqG0r7Pt-17" value="+cav:assignedTo" style="edgeLabel;html=1;align=center;verticalAlign=middle;resizable=0;points=[];" parent="uPZSgL95swfTeqG0r7Pt-16" vertex="1" connectable="0">
          <mxGeometry x="-0.0595" y="2" relative="1" as="geometry">
            <mxPoint x="10" y="-10" as="offset" />
          </mxGeometry>
        </mxCell>
      </root>
    </mxGraphModel>
  </diagram>
</mxfile>
